<svg width="97" height="119" viewBox="0 0 97 119" fill="none" xmlns="http://www.w3.org/2000/svg">
<path d="M-24.4505 102.089C-24.4694 102.113 -24.8294 102.018 -24.8689 102.258L-26.5258 111.301L-25.8479 111.532L-21.1292 118.247L-19.9777 118.067L29.2053 87.0876L30.2091 86.1843C29.9982 84.1788 31.2417 81.8498 31.3384 79.9055C31.4164 78.3568 28.7065 72.9134 27.8873 71.1785C25.8551 66.8763 23.409 62.7593 21.5088 58.3915L77.5139 25.6623C77.8517 25.5605 78.1836 26.1283 78.3699 26.3415C79.7089 27.8719 80.8969 30.0333 82.0095 31.7567L82.4556 31.7738C82.686 31.5215 82.6066 31.0798 82.7636 30.812C85.3149 26.4343 88.133 22.1981 90.6861 17.8144C92.0234 15.5179 94.2196 10.5257 95.663 8.76684C95.8451 8.54372 96.1953 8.70418 96.3177 8.46719C96.6858 5.71039 96.1428 2.7659 95.8132 0.0178881L64.2613 1.03643C64.6343 2.75025 64.6236 4.54958 64.6589 6.30791C64.6882 7.82158 64.1861 8.75214 65.2069 10.2593L2.56844 46.1242L3.56255 56.6627L12.3546 75.5444L13.1811 76.1061C13.2221 75.7276 13.1443 75.3964 13.042 75.0364C11.3874 69.2448 6.42956 62.33 4.42435 56.4254L3.46825 48.2159L15.9161 74.2936L16.1448 74.7166C16.2683 74.6336 16.7914 74.8379 16.7892 74.5852L3.62045 46.2816L70.2868 8.04101L70.4861 7.62184L65.3575 1.6427C70.0092 1.42284 74.6667 1.43975 79.3204 1.40348L94.4631 1.12601C94.7722 1.2325 94.3693 1.33443 94.3638 1.34645C90.9338 8.84704 86.1794 15.9383 82.3888 23.263L81.9413 23.1432L77.6513 17.4291L76.83 17.517L18.0235 52.0787C17.7189 52.5961 19.0511 55.1339 19.3629 55.811C21.0421 59.4434 23.0907 63.0954 24.9103 66.6818C26.6057 70.0214 28.5937 73.2646 29.7531 76.8586C30.0311 77.4064 30.934 78.8642 30.7544 79.3459C30.5749 79.8276 27.8091 81.6649 27.1296 82.1115L27.1366 82.3265C27.407 82.1558 30.1816 80.5907 30.3079 80.717L29.3564 85.9729L-20.1911 117.444C-20.1797 115.91 -19.6393 114.334 -19.3617 112.801C-19.3032 112.475 -18.9756 111.939 -18.9759 111.809C-18.9782 111.736 -19.4211 111.09 -19.2254 110.74C-19.2658 110.71 -19.4982 110.838 -19.671 110.619C-21.0731 108.843 -22.8984 105.267 -24.1992 103.151C-24.2075 103.137 -24.3791 103.198 -24.4209 102.943C-24.4574 102.729 -24.3295 102.478 -24.2271 102.291L-24.4487 102.083L-24.4505 102.089ZM82.7989 29.2844L82.6211 23.8005L95.2288 1.75484L95.4843 7.93535L82.7989 29.2864L82.7989 29.2844ZM81.9303 24.6286C82.1907 25.1809 81.9692 28.6893 81.9527 29.6397C81.9488 29.8827 82.1117 30.225 81.7573 30.1792L78.1935 24.9748L77.7384 18.8995C78.6586 20.1611 81.1422 22.395 81.6629 23.7387C81.8157 24.1346 81.573 24.4328 81.628 24.5475C81.647 24.5864 81.9027 24.5682 81.9302 24.6266L81.9303 24.6286ZM77.0606 18.0605L77.5447 24.664C77.2166 25.4902 73.4528 27.194 72.429 27.786C55.2517 37.7384 38.1791 47.8809 20.9682 57.7712L18.6576 52.4808L77.0586 18.0605L77.0606 18.0605ZM65.1757 2.72677C66.9327 4.07386 68.0913 6.06043 69.6291 7.64171L65.9394 9.80512C65.8518 9.59666 65.3761 8.91105 65.3744 8.85582L65.1757 2.72677ZM-24.6005 104.031L-19.8916 111.354L-20.9522 117.26L-25.6402 110.581L-24.6005 104.031Z" fill="#100F0D"/>
<path d="M15.9143 74.2976C15.9431 74.8199 15.0269 75.2643 14.6463 75.5057C14.0281 75.897 13.2344 76.0452 13.1793 76.1101C13.1508 76.1427 13.262 76.4116 13.1564 76.4999L-24.1278 101.462C-24.4241 101.565 -24.3785 101.997 -24.4505 102.089L-24.2289 102.297C-11.4651 93.4056 1.6908 85.0527 14.4505 76.1578C15.0406 75.7477 15.7223 75.0048 16.1409 74.7207L15.9123 74.2976L15.9143 74.2976Z" fill="#252626"/>
<path d="M94.36 1.35052C93.3955 1.33833 92.418 1.47271 91.4532 1.45263C87.4463 1.37316 83.2903 1.37552 79.3166 1.40556C74.6648 1.44177 70.0053 1.42493 65.3536 1.64479L70.4823 7.62393L70.2829 8.04309L3.61659 46.2837L16.7853 74.5873C16.7876 74.84 16.2663 74.6357 16.1409 74.7187C15.7222 75.0009 15.0385 75.7438 14.4505 76.1558C1.68877 85.0508 -11.4671 93.4037 -24.2289 102.295C-24.3312 102.484 -24.4592 102.733 -24.4227 102.947L-24.201 103.155C-22.9003 105.269 -21.075 108.847 -19.6728 110.623C-19.498 110.844 -19.2656 110.716 -19.2272 110.744C-19.0049 110.913 -18.9861 111.128 -18.9897 111.383L5.79088 95.5518C12.8606 91.0356 20.1429 86.6941 27.1277 82.1155C27.8092 81.6688 30.5803 79.8116 30.7526 79.3499C30.9249 78.8881 30.0293 77.4105 29.7513 76.8626C28.0597 73.5189 26.2387 70.1952 24.9085 66.6858C23.0888 63.0994 21.0403 59.4474 19.3611 55.815C19.0493 55.1399 17.7171 52.6001 18.0217 52.0827L76.8282 17.521L77.6495 17.4331L81.9395 23.1472L82.387 23.267C86.1776 15.9423 90.9319 8.84906 94.362 1.35045L94.36 1.35052Z" fill="#00FF3A"/>
<path d="M77.0606 18.0605L18.6595 52.4807L20.9702 57.7711C38.1811 47.8808 55.2536 37.7383 72.431 27.7859C73.4547 27.1919 77.2185 25.4902 77.5466 24.664L77.0625 18.0604L77.0606 18.0605Z" fill="#3C894D"/>
<path d="M-18.9776 111.815C-18.9773 111.945 -19.305 112.481 -19.3635 112.807C-19.6411 114.34 -20.1815 115.916 -20.1929 117.45L29.3547 85.9789L30.3062 80.723C30.1818 80.5967 27.4072 82.1617 27.1348 82.3325C12.0886 91.7952 -2.66035 102.275 -17.9858 111.393C-18.3011 111.581 -18.6066 111.765 -18.9756 111.816L-18.9776 111.815Z" fill="#3C894D"/>
<path d="M82.7989 29.2844L95.4862 7.93528L95.2307 1.75279L82.6211 23.8005L82.7989 29.2844Z" fill="#3C894D"/>
<path d="M15.9143 74.2976L3.46639 48.2199L4.42249 56.4294C6.42771 62.3341 11.3855 69.2468 13.0401 75.0404C13.1425 75.4004 13.2203 75.7316 13.1793 76.1101C13.2344 76.0471 14.0281 75.899 14.6463 75.5057C15.0269 75.2643 15.9431 74.8199 15.9143 74.2976Z" fill="#3C894D"/>
<path d="M-24.6005 104.031L-25.6402 110.581L-20.9521 117.262L-19.8916 111.354L-24.6005 104.031Z" fill="#3C894D"/>
<path d="M27.1277 82.1155C20.143 86.6961 12.8606 91.0356 5.79088 95.5518L-18.9897 111.383C-18.9861 111.128 -19.0049 110.913 -19.2272 110.744C-19.4229 111.094 -18.9781 111.74 -18.9777 111.813C-18.6067 111.761 -18.3012 111.575 -17.9879 111.39C-2.66244 102.271 12.0865 91.7913 27.1327 82.3286L27.1257 82.1136L27.1277 82.1155Z" fill="#1A1A12"/>
<path d="M81.9303 24.6286C81.9028 24.5702 81.645 24.5864 81.6281 24.5495C81.573 24.4328 81.8157 24.1346 81.663 23.7407C81.1423 22.397 78.6587 20.1631 77.7384 18.9014L78.1936 24.9767L81.7573 30.1811C82.1117 30.2269 81.9488 29.8847 81.9528 29.6416C81.9693 28.6913 82.1908 25.1849 81.9304 24.6305L81.9303 24.6286Z" fill="#3C894D"/>
<path d="M65.1757 2.72677L65.3744 8.85582C65.3761 8.91105 65.8537 9.59463 65.9394 9.80512L69.6291 7.64171C68.0913 6.06043 66.9327 4.07386 65.1757 2.72677Z" fill="#3C894D"/>
<path d="M24.9085 66.6858C26.2387 70.1952 28.0598 73.5209 29.7513 76.8626C28.5918 73.2686 26.6018 70.0235 24.9085 66.6858Z" fill="#D7DDDF"/>
<path d="M79.3166 1.40754C83.2904 1.3775 87.4464 1.37512 91.4533 1.4546C92.418 1.4727 93.3955 1.33834 94.3601 1.3525C94.3656 1.34244 94.7685 1.24053 94.4594 1.13207L79.3167 1.40952L79.3166 1.40754Z" fill="#7EAF5E"/>
<path d="M-24.4226 102.949C-24.3808 103.204 -24.2093 103.143 -24.201 103.157L-24.4226 102.949Z" fill="#252626"/>
</svg>
