<svg width="78" height="51" viewBox="0 0 78 51" fill="none" xmlns="http://www.w3.org/2000/svg">
<path d="M74.6973 8.10251C69.9854 8.10251 66.3738 3.2171 60.9881 3.2171C57.9001 3.2171 54.8129 3.2171 51.7248 3.2171C48.1226 3.2171 44.5716 2.13149 40.9799 2.13149C35.8389 2.13149 30.0766 1.56152 25.2121 2.79494C22.6821 3.43645 19.6008 3.75991 16.896 3.75991C15.1082 3.75991 13.6366 4.76248 11.7087 4.84559C0.720356 5.31906 2.07505 16.7329 2.07505 22.7586C2.07505 30.9377 0.612814 41.1956 10.5971 46.884C14.3621 49.029 22.7279 48.2708 27.2706 48.2708C33.3911 48.2708 39.5116 48.2708 45.632 48.2708C50.7309 48.2708 69.3906 50.2317 71.7337 46.3709C75.7409 39.7661 73.9566 30.8512 73.9566 23.7236C73.9566 20.6211 73.1318 16.3829 74.8621 13.5307C76.8816 10.2028 73.712 7.28949 70.2514 5.3884" fill="white"/>
<path d="M74.6973 8.10251C69.9854 8.10251 66.3738 3.2171 60.9881 3.2171C57.9001 3.2171 54.8129 3.2171 51.7248 3.2171C48.1226 3.2171 44.5716 2.13149 40.9799 2.13149C35.8389 2.13149 30.0766 1.56152 25.2121 2.79494C22.6821 3.43645 19.6008 3.75991 16.896 3.75991C15.1082 3.75991 13.6366 4.76248 11.7087 4.84559C0.720356 5.31906 2.07505 16.7329 2.07505 22.7586C2.07505 30.9377 0.612814 41.1956 10.5971 46.884C14.3621 49.029 22.7279 48.2708 27.2706 48.2708C33.3911 48.2708 39.5116 48.2708 45.632 48.2708C50.7309 48.2708 69.3906 50.2317 71.7337 46.3709C75.7409 39.7661 73.9566 30.8512 73.9566 23.7236C73.9566 20.6211 73.1318 16.3829 74.8621 13.5307C76.8816 10.2028 73.712 7.28949 70.2514 5.3884" stroke="#2B2B2B" stroke-width="3.81786" stroke-linecap="round"/>
</svg>
