<svg width="47" height="119" viewBox="0 0 47 119" fill="none" xmlns="http://www.w3.org/2000/svg">
<path d="M121.396 102.089C121.415 102.113 121.775 102.018 121.815 102.258L123.472 111.301L122.794 111.532L118.075 118.247L116.923 118.067L67.7405 87.0876L66.7367 86.1843C66.9476 84.1788 65.7041 81.8498 65.6074 79.9055C65.5294 78.3568 68.2393 72.9134 69.0585 71.1785C71.0907 66.8763 73.5368 62.7593 75.437 58.3915L19.4319 25.6623C19.0941 25.5605 18.7622 26.1283 18.5759 26.3415C17.2369 27.8719 16.0489 30.0333 14.9363 31.7567L14.4902 31.7738C14.2598 31.5215 14.3392 31.0798 14.1822 30.812C11.6309 26.4343 8.81276 22.1981 6.25965 17.8144C4.92241 15.5179 2.72617 10.5257 1.28279 8.76684C1.10075 8.54372 0.750516 8.70418 0.628071 8.46719C0.26 5.71039 0.802972 2.7659 1.13256 0.0178881L32.6845 1.03643C32.3115 2.75025 32.3222 4.54958 32.2869 6.30791C32.2576 7.82158 32.7597 8.75214 31.7389 10.2593L94.3774 46.1242L93.3833 56.6627L84.5912 75.5444L83.7647 76.1061C83.7237 75.7276 83.8015 75.3964 83.9038 75.0364C85.5584 69.2448 90.5162 62.33 92.5215 56.4254L93.4776 48.2159L81.0297 74.2936L80.801 74.7166C80.6775 74.6336 80.1544 74.8379 80.1566 74.5852L93.3254 46.2816L26.659 8.04101L26.4597 7.62184L31.5883 1.6427C26.9366 1.42284 22.2791 1.43975 17.6254 1.40348L2.48268 1.12601C2.17363 1.2325 2.57648 1.33443 2.582 1.34645C6.01201 8.84704 10.7664 15.9383 14.557 23.263L15.0045 23.1432L19.2945 17.4291L20.1158 17.517L78.9223 52.0787C79.2269 52.5961 77.8947 55.1339 77.5829 55.811C75.9037 59.4434 73.8551 63.0954 72.0355 66.6818C70.3401 70.0214 68.3521 73.2646 67.1927 76.8586C66.9147 77.4064 66.0118 78.8642 66.1914 79.3459C66.3709 79.8276 69.1367 81.6649 69.8162 82.1115L69.8092 82.3265C69.5388 82.1558 66.7642 80.5907 66.6379 80.717L67.5894 85.9729L117.137 117.444C117.125 115.91 116.585 114.334 116.307 112.801C116.249 112.475 115.921 111.939 115.922 111.809C115.924 111.736 116.367 111.09 116.171 110.74C116.212 110.71 116.444 110.838 116.617 110.619C118.019 108.843 119.844 105.267 121.145 103.151C121.153 103.137 121.325 103.198 121.367 102.943C121.403 102.729 121.275 102.478 121.173 102.291L121.395 102.083L121.396 102.089ZM14.1469 29.2844L14.3247 23.8005L1.71704 1.75484L1.46155 7.93535L14.1469 29.2864L14.1469 29.2844ZM15.0155 24.6286C14.7551 25.1809 14.9766 28.6893 14.9931 29.6397C14.997 29.8827 14.8341 30.225 15.1885 30.1792L18.7523 24.9748L19.2074 18.8995C18.2872 20.1611 15.8036 22.395 15.2829 23.7387C15.1301 24.1346 15.3728 24.4328 15.3178 24.5475C15.2988 24.5864 15.0431 24.5682 15.0156 24.6266L15.0155 24.6286ZM19.8852 18.0605L19.4011 24.664C19.7292 25.4902 23.493 27.194 24.5168 27.786C41.6941 37.7384 58.7667 47.8809 75.9776 57.7712L78.2882 52.4808L19.8872 18.0605L19.8852 18.0605ZM31.7701 2.72677C30.0131 4.07386 28.8545 6.06043 27.3167 7.64171L31.0064 9.80512C31.094 9.59666 31.5697 8.91105 31.5714 8.85582L31.7701 2.72677ZM121.546 104.031L116.837 111.354L117.898 117.26L122.586 110.581L121.546 104.031Z" fill="#100F0D"/>
<path d="M81.0315 74.2976C81.0027 74.8199 81.9189 75.2643 82.2995 75.5057C82.9177 75.897 83.7114 76.0452 83.7665 76.1101C83.795 76.1427 83.6838 76.4116 83.7894 76.4999L121.074 101.462C121.37 101.565 121.324 101.997 121.396 102.089L121.175 102.297C108.411 93.4056 95.255 85.0527 82.4953 76.1578C81.9052 75.7477 81.2235 75.0048 80.8049 74.7207L81.0335 74.2976L81.0315 74.2976Z" fill="#252626"/>
<path d="M2.58581 1.35052C3.55032 1.33833 4.52781 1.47271 5.49257 1.45263C9.49945 1.37316 13.6555 1.37552 17.6293 1.40556C22.281 1.44177 26.9405 1.42493 31.5922 1.64479L26.4635 7.62393L26.6629 8.04309L93.3292 46.2837L80.1605 74.5873C80.1582 74.84 80.6795 74.6357 80.8049 74.7187C81.2236 75.0009 81.9073 75.7438 82.4953 76.1558C95.257 85.0508 108.413 93.4037 121.175 102.295C121.277 102.484 121.405 102.733 121.368 102.947L121.147 103.155C119.846 105.269 118.021 108.847 116.619 110.623C116.444 110.844 116.211 110.716 116.173 110.744C115.951 110.913 115.932 111.128 115.935 111.383L91.1549 95.5518C84.0852 91.0356 76.8029 86.6941 69.8181 82.1155C69.1366 81.6688 66.3655 79.8116 66.1932 79.3499C66.0209 78.8881 66.9165 77.4105 67.1945 76.8626C68.8861 73.5189 70.7071 70.1952 72.0373 66.6858C73.857 63.0994 75.9055 59.4474 77.5847 55.815C77.8965 55.1399 79.2287 52.6001 78.9241 52.0827L20.1176 17.521L19.2963 17.4331L15.0063 23.1472L14.5588 23.267C10.7682 15.9423 6.01392 8.84906 2.58385 1.35045L2.58581 1.35052Z" fill="#00FF3A"/>
<path d="M19.8852 18.0605L78.2863 52.4807L75.9756 57.7711C58.7647 47.8808 41.6922 37.7383 24.5148 27.7859C23.4911 27.1919 19.7273 25.4902 19.3992 24.664L19.8833 18.0604L19.8852 18.0605Z" fill="#3C894D"/>
<path d="M115.923 111.815C115.923 111.945 116.251 112.481 116.309 112.807C116.587 114.34 117.127 115.916 117.139 117.45L67.5911 85.9789L66.6396 80.723C66.764 80.5967 69.5386 82.1617 69.811 82.3325C84.8572 91.7952 99.6061 102.275 114.932 111.393C115.247 111.581 115.552 111.765 115.921 111.816L115.923 111.815Z" fill="#3C894D"/>
<path d="M14.1469 29.2844L1.45958 7.93528L1.71514 1.75279L14.3247 23.8005L14.1469 29.2844Z" fill="#3C894D"/>
<path d="M81.0315 74.2976L93.4794 48.2199L92.5233 56.4294C90.5181 62.3341 85.5603 69.2468 83.9057 75.0404C83.8033 75.4004 83.7255 75.7316 83.7665 76.1101C83.7114 76.0471 82.9177 75.899 82.2995 75.5057C81.9189 75.2643 81.0027 74.8199 81.0315 74.2976Z" fill="#3C894D"/>
<path d="M121.546 104.031L122.586 110.581L117.898 117.262L116.837 111.354L121.546 104.031Z" fill="#3C894D"/>
<path d="M69.8181 82.1155C76.8028 86.6961 84.0852 91.0356 91.1549 95.5518L115.935 111.383C115.932 111.128 115.951 110.913 116.173 110.744C116.369 111.094 115.924 111.74 115.923 111.813C115.553 111.761 115.247 111.575 114.934 111.39C99.6082 102.271 84.8593 91.7913 69.8131 82.3286L69.8201 82.1136L69.8181 82.1155Z" fill="#1A1A12"/>
<path d="M15.0155 24.6286C15.043 24.5702 15.3008 24.5864 15.3177 24.5495C15.3728 24.4328 15.1301 24.1346 15.2828 23.7407C15.8035 22.397 18.2871 20.1631 19.2074 18.9014L18.7522 24.9767L15.1885 30.1811C14.8341 30.2269 14.997 29.8847 14.993 29.6416C14.9765 28.6913 14.755 25.1849 15.0154 24.6305L15.0155 24.6286Z" fill="#3C894D"/>
<path d="M31.7701 2.72677L31.5714 8.85582C31.5697 8.91105 31.0921 9.59463 31.0064 9.80512L27.3167 7.64171C28.8545 6.06043 30.0131 4.07386 31.7701 2.72677Z" fill="#3C894D"/>
<path d="M72.0373 66.6858C70.7071 70.1952 68.886 73.5209 67.1945 76.8626C68.354 73.2686 70.344 70.0235 72.0373 66.6858Z" fill="#D7DDDF"/>
<path d="M17.6292 1.40754C13.6554 1.3775 9.49939 1.37512 5.49251 1.4546C4.52781 1.4727 3.55032 1.33834 2.58575 1.3525C2.58016 1.34244 2.17731 1.24053 2.48642 1.13207L17.6291 1.40952L17.6292 1.40754Z" fill="#7EAF5E"/>
<path d="M121.368 102.949C121.327 103.204 121.155 103.143 121.147 103.157L121.368 102.949Z" fill="#252626"/>
</svg>
