<svg width="75" height="75" viewBox="0 0 75 75" fill="none" xmlns="http://www.w3.org/2000/svg">
<g clip-path="url(#clip0_549_1419)">
<g clip-path="url(#clip1_549_1419)">
<path fill-rule="evenodd" clip-rule="evenodd" d="M54.1732 15.9457C54.7712 15.6721 55.426 15.5777 56.069 15.6725C56.712 15.7672 57.32 16.0475 57.8295 16.4842C58.3391 16.921 58.7318 17.4983 58.9665 18.1559C59.201 18.8135 59.2693 19.5276 59.164 20.2236L53.6746 56.4164C53.1421 59.9075 49.618 61.9096 46.6724 60.1707C44.2085 58.7158 40.5488 56.4742 37.2572 54.1354C35.6112 52.9647 30.5696 49.2158 31.1892 46.548C31.7217 44.267 40.193 35.6957 45.0339 30.5997C46.9339 28.5976 46.0673 27.4426 43.8236 29.2842C38.2518 33.8566 29.3062 40.8102 26.3485 42.7675C23.7393 44.4932 22.3791 44.7879 20.7526 44.4932C17.7851 43.9566 15.0332 43.1252 12.7871 42.1123C9.75191 40.7443 9.89956 36.2087 12.7846 34.888L54.1732 15.9457Z" fill="white"/>
</g>
</g>
<defs>
<clipPath id="clip0_549_1419">
<rect width="74.7074" height="74.7074" fill="white" transform="translate(0.141113)"/>
</clipPath>
<clipPath id="clip1_549_1419">
<rect width="74.7074" height="74.7074" fill="white" transform="translate(0.141113)"/>
</clipPath>
</defs>
</svg>
