<svg width="150" height="119" viewBox="0 0 150 119" fill="none" xmlns="http://www.w3.org/2000/svg">
<path d="M-9.75555 117.71C-9.79056 117.725 -9.78423 118.188 -10.0858 118.163L-21.4901 117.443L-21.5647 116.556L-28.2451 108.846L-27.6824 107.511L24.4675 57.5064L25.8589 56.5673C28.2142 57.4245 31.397 56.6249 33.771 57.0928C35.6623 57.4644 41.4128 62.3692 43.2589 63.8788C47.8368 67.6231 52.0669 71.811 56.7634 75.4159L113.074 17.7089C113.299 17.3321 112.714 16.7611 112.513 16.4723C111.069 14.3973 108.82 12.3148 107.076 10.4547L107.189 9.91152C107.563 9.70952 108.072 9.93805 108.442 9.82926C114.488 8.06825 120.445 5.94292 126.5 4.18156C129.671 3.25915 136.353 2.11113 138.908 0.899072C139.232 0.74659 139.143 0.275948 139.466 0.199517C142.902 0.584376 146.29 2.12445 149.505 3.3481L138.791 41.0959C136.836 40.1308 134.663 39.6028 132.553 39.0316C130.736 38.5412 129.463 38.8671 127.952 37.1828L65.8647 101.947L53.4533 97.5802L33.3237 81.2999L32.8947 80.1341C33.3635 80.1985 33.7396 80.3919 34.1431 80.6236C40.6307 84.3602 47.48 92.4186 53.9986 96.6121L63.6125 100.233L35.903 77.3804L35.4615 76.9775C35.5987 76.8535 35.5097 76.1611 35.8138 76.2398L65.9911 100.631L132.154 31.7229L132.72 31.6085L138.389 39.5916C140.053 34.0473 141.433 28.425 142.875 22.8231L147.762 4.64331C147.727 4.23857 147.483 4.69378 147.467 4.69683C137.389 6.57876 127.407 10.181 117.434 12.5508L117.444 13.1265L123.045 20.0184L122.693 20.9825L63.3294 81.5173C62.6138 81.7291 59.9535 79.3594 59.2306 78.7798C55.3545 75.6625 51.5658 72.0939 47.7874 68.8211C44.2692 65.7724 40.9553 62.3997 36.9693 59.9209C36.3921 59.4209 34.9054 57.8936 34.2704 57.9654C33.6354 58.0372 30.5881 60.8205 29.8452 61.5058L29.5879 61.4328C29.8751 61.1579 32.5968 58.282 32.4825 58.0917L25.8574 57.6592L-26.9951 107.956C-25.1407 108.404 -23.078 108.225 -21.145 108.352C-20.7346 108.379 -19.9897 108.145 -19.8327 108.185C-19.7453 108.209 -19.1003 108.937 -18.6194 108.807C-18.595 108.864 -18.8193 109.106 -18.6064 109.381C-16.8869 111.605 -13.1223 114.882 -10.9611 117.087C-10.9472 117.101 -11.0722 117.29 -10.7767 117.417C-10.5295 117.525 -10.1884 117.447 -9.93211 117.379L-9.7478 117.709L-9.75555 117.71ZM110.295 10.246L116.855 12.109L147.234 3.53085L139.857 1.36464L110.292 10.2453L110.295 10.246ZM115.649 12.6932C115.061 12.2131 110.763 11.4255 109.612 11.1597C109.317 11.0914 108.954 10.792 108.902 11.2332L114.108 17.096L121.298 19.4714C120.053 17.9822 118.106 14.3152 116.642 13.2832C116.21 12.9799 115.778 13.183 115.656 13.0822C115.615 13.0476 115.713 12.7446 115.651 12.6939L115.649 12.6932ZM122.106 20.5411L114.288 17.972C113.192 18.1193 110.006 22.1465 108.984 23.2033C91.8169 40.9284 74.4517 58.4701 57.3491 76.2544L63.0351 80.6317L122.106 20.5434L122.106 20.5411ZM137.027 39.4849C135.931 36.9609 133.883 34.9663 132.438 32.6362L128.72 36.4359C128.945 36.6042 129.629 37.384 129.695 37.4028L137.027 39.4849ZM-12.1429 117.307L-19.5602 109.426L-27.0012 108.929L-20.3556 116.591L-12.1429 117.307Z" fill="#100F0D"/>
<path d="M35.8976 77.3814C35.2763 77.1897 34.4649 78.1611 34.0593 78.5475C33.4015 79.1755 32.9842 80.0882 32.8893 80.1351C32.8415 80.1598 32.5507 79.9447 32.4124 80.0455L-8.90283 117.509C-9.11545 117.835 -9.62393 117.65 -9.75555 117.71L-9.93986 117.38C4.62074 104.659 18.65 91.3027 33.214 78.5876C33.886 77.9993 34.9869 77.4003 35.4554 76.9809L35.897 77.3838L35.8976 77.3814Z" fill="#252626"/>
<path d="M147.461 4.70021C147.185 5.86714 146.73 7.00568 146.464 8.17529C145.355 13.0318 144.103 18.0436 142.872 22.8272C141.43 28.4267 140.049 34.0514 138.386 39.5957L132.716 31.6126L132.151 31.727L65.9874 100.635L35.8101 76.2439C35.506 76.1651 35.5957 76.8552 35.4578 76.9815C34.9917 77.4017 33.8901 78.003 33.2164 78.5882C18.6517 91.3057 4.62244 104.662 -9.93749 117.38C-10.1961 117.447 -10.5349 117.526 -10.7821 117.418L-10.9664 117.088C-13.1253 114.884 -16.8923 111.606 -18.6118 109.382C-18.8264 109.104 -18.6021 108.862 -18.6248 108.808C-18.7612 108.489 -19.0144 108.402 -19.3229 108.329L7.21999 83.2013C14.7923 76.0325 22.2177 68.5546 29.8398 61.5068C30.5834 60.8192 33.6563 58.0355 34.265 57.9664C34.8738 57.8974 36.3867 59.4219 36.9639 59.9219C40.4881 62.9672 43.9492 66.1627 47.782 68.8221C51.5604 72.095 55.3491 75.6636 59.2252 78.7808C59.9458 79.3597 62.6084 81.7301 63.324 81.5183L122.687 20.9835L123.04 20.0194L117.438 13.1275L117.428 12.5518C127.402 10.1821 137.386 6.58045 147.461 4.69785L147.461 4.70021Z" fill="#00FF3A"/>
<path d="M122.106 20.5411L63.0358 80.6293L57.3497 76.252C74.4523 58.4678 91.8176 40.9261 108.985 23.2009C110.009 22.1448 113.193 18.1169 114.288 17.9696L122.107 20.5387L122.106 20.5411Z" fill="#3C894D"/>
<path d="M-19.8404 108.185C-19.9975 108.145 -20.7423 108.379 -21.1528 108.352C-23.0857 108.226 -25.1485 108.404 -27.0029 107.956L25.8497 57.6595L32.4748 58.0921C32.5897 58.28 29.8681 61.1559 29.5802 61.4331C13.6441 76.7351 -3.42957 91.3729 -19.0343 107.115C-19.3557 107.439 -19.6691 107.752 -19.8421 108.182L-19.8404 108.185Z" fill="#3C894D"/>
<path d="M110.295 10.246L139.858 1.36228L147.237 3.52916L116.855 12.109L110.295 10.246Z" fill="#3C894D"/>
<path d="M35.8976 77.3814L63.6071 100.234L53.9932 96.6132C47.4746 92.4196 40.6277 84.3619 34.1377 80.6246C33.7342 80.3929 33.3581 80.1995 32.8893 80.1351C32.9819 80.0876 33.3992 79.1748 34.0593 78.5475C34.4649 78.1611 35.2763 77.1897 35.8976 77.3814Z" fill="#3C894D"/>
<path d="M-12.1429 117.307L-20.3556 116.591L-27.0036 108.929L-19.5602 109.426L-12.1429 117.307Z" fill="#3C894D"/>
<path d="M29.8398 61.5068C22.2154 68.5539 14.7923 76.0325 7.21999 83.2013L-19.3229 108.329C-19.0144 108.402 -18.7612 108.489 -18.6248 108.808C-19.1057 108.938 -19.7501 108.208 -19.838 108.186C-19.6644 107.754 -19.3486 107.441 -19.0302 107.119C-3.42552 91.3766 13.6481 76.7388 29.5842 61.4368L29.8415 61.5099L29.8398 61.5068Z" fill="#1A1A12"/>
<path d="M115.649 12.6932C115.711 12.7439 115.614 13.0499 115.653 13.0815C115.778 13.183 116.21 12.9799 116.639 13.2826C118.103 14.3145 120.051 17.9815 121.296 19.4707L114.106 17.0953L108.9 11.2325C108.951 10.7913 109.315 11.0907 109.609 11.159C110.761 11.4248 115.056 12.2117 115.646 12.6925L115.649 12.6932Z" fill="#3C894D"/>
<path d="M137.027 39.4849L129.695 37.4028C129.629 37.384 128.948 36.6025 128.72 36.4359L132.438 32.6362C133.883 34.9663 135.931 36.9609 137.027 39.4849Z" fill="#3C894D"/>
<path d="M47.782 68.8221C43.9492 66.1627 40.4857 62.9666 36.9639 59.9219C40.9499 62.4007 44.2655 65.7764 47.782 68.8221Z" fill="#D7DDDF"/>
<path d="M142.869 22.8265C144.1 18.0429 145.353 13.0311 146.461 8.17461C146.729 7.00567 147.185 5.86713 147.458 4.69954C147.472 4.69582 147.716 4.24059 147.754 4.64601L142.867 22.8258L142.869 22.8265Z" fill="#7EAF5E"/>
<path d="M-10.7845 117.417C-11.0799 117.29 -10.955 117.102 -10.9688 117.087L-10.7845 117.417Z" fill="#252626"/>
</svg>
