<svg width="92" height="159" viewBox="0 0 92 159" fill="none" xmlns="http://www.w3.org/2000/svg">
<path d="M81.2082 97.0781C73.2147 100.93 64.9553 103.581 56.0061 104.781C56.0023 104.753 55.998 104.725 55.9848 104.692C54.7248 102.328 51.9648 101.133 49.3858 101.819C49.3249 101.836 49.2872 101.874 49.2776 101.923C49.2851 101.905 49.2797 101.891 49.2746 101.879C47.0171 96.1444 44.494 90.6288 42.652 84.734C45.341 84.2817 47.1214 81.3703 46.0871 78.8032C50.0789 79.1038 53.8278 77.8118 57.474 76.2673C61.4677 74.5759 65.4228 72.7717 69.3537 70.9243C62.2062 79.3906 72.504 97.3758 81.2082 97.0781ZM61.9614 89.696C62.1771 87.3396 60.8528 84.7992 58.3697 84.364C56.2624 84.0029 54.3251 85.6105 54.3612 87.6773C53.4134 89.8779 54.9991 92.1327 57.0878 92.9148C59.7899 93.9301 61.7114 92.4876 61.9614 89.696Z" fill="#A1BF38"/>
<path d="M103.059 55.0533C105.459 59.9268 109.154 64.7137 112.846 68.69C110.499 70.1022 111.042 73.2422 112.384 75.2652C107.069 81.7732 99.7629 86.7168 92.3868 91.0184C97.8305 81.1739 88.0491 66.4671 77.5358 66.9372C84.5555 63.2976 91.27 59.1635 97.3538 54.0597C98.4422 55.7564 101.412 55.815 103.059 55.0533ZM102.131 69.8362C102.852 67.915 102.088 65.329 100.352 64.2087C98.8187 63.2186 96.2301 63.5845 95.56 65.4478C93.1858 69.1256 100.44 74.3509 102.131 69.8362Z" fill="#A1BF38"/>
<path d="M77.2361 82.4817C77.1847 82.5024 77.1375 82.5362 77.0837 82.551C74.8584 83.3878 72.8414 82.0201 73.8429 79.452C74.0044 79.0332 74.2527 78.6401 74.5522 78.2647C75.4006 79.6965 76.2968 81.1013 77.2361 82.4817Z" fill="#6AA742"/>
<path d="M58.927 85.5597C60.5625 86.2991 61.1865 88.1447 60.9691 89.8256C60.7824 91.2835 60.2762 92.3596 58.4429 92.2869C57.894 92.267 57.312 92.036 56.8328 91.7783C55.5439 91.0796 54.9112 89.9372 54.8663 88.5951C55.134 88.6078 55.4023 88.4321 55.3545 88.0898C55.0749 86.0143 57.1165 84.7409 58.927 85.5597Z" fill="#6AA742"/>
<path d="M118.559 71.6427C118.779 71.8167 118.894 72.1387 118.713 72.4369C111.981 83.2816 100.617 90.4985 89.5728 96.369C77.6634 102.701 63.1839 108.7 49.4616 108.667C49.1306 108.665 49.0028 108.348 49.1108 108.132C48.9926 108.082 48.8843 107.998 48.8151 107.846C44.4965 98.5452 40.3841 88.8978 37.7013 78.9753C37.5754 78.5145 38.152 78.192 38.4211 78.5049C38.45 78.5011 38.482 78.4883 38.5082 78.4777L38.6772 79.1015C40.4627 83.9441 42.2029 88.7667 44.0499 93.5551C45.8429 98.2291 47.7372 102.855 49.8566 107.427C49.9368 107.59 49.9283 107.736 49.872 107.857C56.6937 106.581 63.4034 105.607 70.0564 103.445C70.1493 103.416 70.236 103.388 70.3262 103.351C76.4085 101.359 82.2997 98.8202 87.9716 95.8657C99.3934 89.9262 110.589 82.6414 117.83 71.7571C117.838 71.7394 117.857 71.7316 117.868 71.7194L118.561 71.538C118.568 71.5713 118.568 71.6096 118.559 71.6427Z" fill="#2A2A2A"/>
<path d="M118.5 71.3654C118.537 71.4185 118.554 71.479 118.561 71.5359L117.868 71.7172C111.815 64.7154 106.529 56.9315 101.108 49.4282C92.4749 56.2814 82.9802 62.3391 72.94 67.2859C64.0818 71.6595 54.8057 75.1636 45.3264 77.5846C43.1193 78.1505 40.9014 78.653 38.6763 79.0988L38.5073 78.4751C61.1227 72.3921 81.8326 62.9054 100.412 48.4829C100.452 48.4519 100.493 48.4422 100.536 48.4183C100.561 47.9574 101.199 47.6024 101.549 48.0777C107.163 55.8363 113.26 63.3601 118.5 71.3654Z" fill="#2A2A2A"/>
<path d="M117.868 71.7178C117.858 71.7297 117.839 71.7375 117.83 71.7556C110.588 82.6402 99.3931 89.925 87.9721 95.8641C82.3002 98.8187 76.4086 101.357 70.3267 103.35L70.0441 102.517C76.1711 100.507 82.0517 97.6037 87.5707 94.4933C96.6357 89.3828 106.317 83.8067 112.935 75.6076C113.088 75.4104 112.974 75.2009 112.799 75.1215C112.064 73.1854 111.043 70.4473 113.423 69.2099C113.485 69.177 113.529 69.1369 113.562 69.0865C113.731 69.0036 113.825 68.808 113.672 68.6138C110.113 64.072 106.864 59.3089 103.351 54.7488C103.385 54.5174 103.199 54.261 102.919 54.3885C101.969 54.8088 100.985 54.9797 99.9547 54.7716C98.9665 54.5759 98.2958 53.974 97.4183 53.5691C97.3911 53.5576 97.3598 53.5554 97.3318 53.5589C97.2397 53.498 97.122 53.4857 97.0078 53.5768C90.3335 59.0244 82.9447 63.4065 75.275 67.2787C74.6071 67.4498 73.94 67.696 73.277 68.0083L72.9413 67.287C82.9812 62.3394 92.4759 56.2817 101.109 49.4293C106.529 56.9321 111.815 64.7161 117.868 71.7178Z" fill="#6AA742"/>
<path d="M113.671 68.6139C113.825 68.8078 113.73 69.0036 113.561 69.0866C113.528 69.137 113.484 69.1771 113.422 69.21C111.042 70.4474 112.063 73.1855 112.798 75.1216C112.973 75.201 113.087 75.4108 112.934 75.6077C106.315 83.8059 96.6348 89.3829 87.5698 94.4934C82.0509 97.6038 76.171 100.507 70.0432 102.517C65.4646 104.024 60.7404 105.041 55.9369 105.262C55.8397 105.264 55.7775 105.221 55.7319 105.164C55.5979 105.204 55.4526 105.179 55.3762 105.045C54.1723 102.952 51.8817 101.8 49.4799 102.182C49.3657 102.198 49.2854 102.11 49.2749 102.009C49.2865 101.982 49.2913 101.957 49.2784 101.925C49.2889 101.876 49.3258 101.838 49.3867 101.822C51.9668 101.136 54.7257 102.331 55.9856 104.695C55.9985 104.727 56.0023 104.755 56.0069 104.784C64.9558 103.583 73.2156 100.932 81.209 97.0807C72.5049 97.3784 62.2067 79.3923 69.3565 70.9271C65.4253 72.7736 61.4702 74.5778 57.4769 76.2701C53.8298 77.8149 50.0817 79.1065 46.09 78.806C47.1243 81.3731 45.3442 84.2853 42.6549 84.7368C44.4961 90.6319 47.0188 96.1466 49.2774 101.881C49.2825 101.894 49.288 101.908 49.2804 101.925C49.2756 101.95 49.2726 101.981 49.2769 102.009C49.2231 102.136 49.0394 102.203 48.9599 102.061C47.3258 99.292 45.9741 96.3118 44.7978 93.261C43.7231 90.4622 42.7968 87.6037 41.9283 84.7963C41.859 84.5685 42.0044 84.3894 42.1757 84.3282C42.2166 84.2813 42.2697 84.2452 42.3373 84.2258C44.9686 83.5939 46.1294 81.1948 45.3243 78.6931C45.2588 78.4941 45.3622 78.3398 45.5047 78.2824C45.6277 78.2328 45.7853 78.2516 45.8909 78.3825C54.6635 77.9749 63.2162 73.1982 71.0429 69.3608C71.7822 68.8072 72.5279 68.3646 73.2793 68.009C73.9423 67.6968 74.6103 67.4502 75.2774 67.2794C82.9471 63.4072 90.3358 59.0251 97.0101 53.5775C97.1235 53.4867 97.2412 53.4991 97.3342 53.5596C97.363 53.5558 97.3934 53.5583 97.4206 53.5699C98.2984 53.9756 98.9688 54.5767 99.957 54.7723C100.988 54.9812 101.971 54.8103 102.922 54.3892C103.202 54.2618 103.387 54.5173 103.353 54.7495C106.862 59.3081 110.113 64.0721 113.671 68.6139ZM112.846 68.6907C109.154 64.714 105.459 59.9267 103.059 55.054C101.412 55.8157 98.442 55.7571 97.3528 54.0607C91.2694 59.1654 84.5544 63.2986 77.5348 66.9382C88.0481 66.4682 97.8291 81.1741 92.3858 91.0194C99.7615 86.7169 107.068 81.7743 112.383 75.2663C111.041 73.2432 110.498 70.102 112.846 68.6907ZM91.1488 91.0818C97.5425 80.7036 85.4398 63.8738 73.4898 68.9668C73.1581 69.1308 72.8227 69.2885 72.4874 69.4461C59.4846 76.5714 75.6364 102.894 85.5698 94.4349C85.7249 94.2969 85.9598 94.4884 85.9081 94.6592C86.0067 94.6048 86.1068 94.5566 86.2054 94.5022C87.8555 93.5973 89.5188 92.6714 91.1917 91.7112C91.0618 91.5372 91.0119 91.3015 91.1488 91.0818Z" fill="#2A2A2A"/>
<path d="M100.352 64.2088C102.088 65.3278 102.852 67.9138 102.13 69.8362C100.439 74.351 93.1854 69.1256 95.5599 65.4486C96.23 63.5853 98.8182 63.2186 100.352 64.2088ZM101.363 68.8077C101.741 65.8666 98.3358 62.8799 96.2724 66.0033C96.2115 66.0955 96.139 66.1394 96.0591 66.1647C95.7891 67.4161 96.2606 68.5862 97.3036 69.4967C98.7126 70.7174 101.038 71.2837 101.363 68.8077Z" fill="#2A2A2A"/>
<path d="M72.9404 67.2868L73.2761 68.008C72.5247 68.3636 71.779 68.8062 71.0398 69.3598C63.213 73.1972 54.6603 77.9738 45.8877 78.3815C45.7824 78.2514 45.6246 78.2318 45.5015 78.2814L45.326 77.5857C54.8062 75.1645 64.0823 71.6603 72.9404 67.2868Z" fill="#6AA742"/>
<path d="M70.0427 102.517L70.3253 103.349C70.2351 103.386 70.148 103.413 70.0555 103.443C63.4028 105.605 56.6931 106.58 49.8711 107.855C49.9274 107.734 49.9363 107.589 49.8557 107.425C47.7352 102.853 45.842 98.227 44.049 93.553L44.7953 93.2602C45.9716 96.311 47.3235 99.292 48.9573 102.061C49.0365 102.201 49.2205 102.135 49.2744 102.008C49.2846 102.109 49.3651 102.197 49.4794 102.181C51.8812 101.8 54.1717 102.951 55.3756 105.044C55.4524 105.179 55.5973 105.203 55.7314 105.164C55.7769 105.221 55.8392 105.263 55.9364 105.261C60.7399 105.04 65.464 104.023 70.0427 102.517Z" fill="#6AA742"/>
<path d="M58.3701 84.3634C60.8531 84.7985 62.1775 87.3389 61.9618 89.6953C61.7109 92.4872 59.7897 93.9306 57.0882 92.9142C54.9994 92.132 53.4146 89.8769 54.3615 87.6766C54.3246 85.6101 56.2628 84.0022 58.3701 84.3634ZM60.9688 89.8259C61.1862 88.145 60.563 86.299 58.9267 85.56C57.1161 84.7412 55.0737 86.0149 55.3538 88.0892C55.4013 88.4307 55.1338 88.606 54.8656 88.5946C54.9105 89.9366 55.5436 91.0799 56.8321 91.7777C57.3113 92.0355 57.8937 92.2673 58.4422 92.2863C60.2759 92.3599 60.7821 91.2838 60.9688 89.8259Z" fill="#2A2A2A"/>
<path d="M45.3268 77.5855L45.5022 78.2811C45.3598 78.3385 45.2563 78.4929 45.3218 78.6919C46.1269 81.1936 44.9661 83.5927 42.3349 84.2246C42.2673 84.244 42.2145 84.2809 42.1733 84.3269C42.0028 84.3878 41.8566 84.5672 41.9258 84.7951C42.794 87.6016 43.7198 90.4613 44.7954 93.2597L44.0491 93.5526C42.2025 88.765 40.4627 83.9411 38.6764 79.0989C40.9022 78.6548 43.1197 78.1514 45.3268 77.5855Z" fill="#6AA742"/>
<path d="M49.2782 101.924C49.2912 101.956 49.2864 101.98 49.2747 102.008C49.2713 101.98 49.2734 101.948 49.2782 101.924Z" fill="#2A2A2A"/>
<g clip-path="url(#clip0_365_3977)">
<rect x="100.564" y="90.325" width="31.9161" height="32.98" rx="15.9581" transform="rotate(155.133 100.564 90.325)" fill="#6AA742"/>
<path d="M72.9392 91.1736L72.8645 91.1541C72.8645 91.1541 72.8645 91.1541 72.8645 91.1541C72.8645 91.1542 72.8645 91.1542 72.8645 91.1542L72.9392 91.1736ZM72.9392 91.1736C72.9574 91.1036 72.9817 91.0343 73.006 90.9651C73.047 90.848 73.088 90.7311 73.0991 90.6113L72.8569 91.3974L72.9339 91.3907M72.9392 91.1736C72.9213 91.2419 72.9275 91.319 72.9339 91.3907M72.9339 91.3907L72.8569 91.3975L72.8569 91.3975M72.9339 91.3907C72.9396 91.4571 72.9484 91.5234 72.9572 91.5896C72.9676 91.6683 72.9781 91.7469 72.9834 91.8256M72.8569 91.3975L72.7461 91.9646C72.7657 91.9742 72.7896 91.9779 72.8219 91.9683L72.822 91.9682C72.8573 91.9577 72.8773 91.94 72.8891 91.9202C72.9017 91.8992 72.9088 91.8694 72.9063 91.8307L72.9834 91.8256M72.8569 91.3975C72.8628 91.4657 72.8719 91.5336 72.8806 91.5995C72.8814 91.6059 72.8823 91.6122 72.8831 91.6185C72.8927 91.691 72.9016 91.7612 72.9063 91.8309L72.9834 91.8256M72.8569 91.3975L72.844 92.0423M72.9834 91.8256C72.9899 91.926 72.9486 92.0112 72.844 92.0423M72.844 92.0423C72.744 92.0721 72.6686 92.0237 72.6163 91.9428M72.844 92.0423L72.6812 91.9009L72.6163 91.9428M72.6163 91.9428C72.5793 91.8853 72.5459 91.8251 72.5119 91.7635C72.4947 91.7325 72.4774 91.7012 72.4594 91.6697L72.4206 91.5896L72.4203 91.5896M72.6163 91.9428L72.6812 91.9009C72.6455 91.8455 72.6144 91.7892 72.5812 91.7292C72.5638 91.6977 72.5458 91.6652 72.5263 91.6313L72.5067 91.5971L72.474 91.5936C72.4727 91.5932 72.4713 91.5928 72.4699 91.5924C72.4624 91.5903 72.4431 91.5852 72.4203 91.5896M72.4203 91.5896L72.4167 91.5903C72.3714 91.5988 72.3312 91.6063 72.3003 91.6158C72.2689 91.6254 72.2303 91.6418 72.2054 91.6794C72.181 91.7164 72.1806 91.7582 72.1833 91.7906C72.1858 91.8215 72.193 91.8599 72.201 91.9032C72.2016 91.9063 72.2022 91.9095 72.2028 91.9126L72.2028 91.9127M72.4203 91.5896L72.2028 91.9127M73.0638 87.9595L72.9928 87.9291C72.9207 88.0969 72.7787 88.199 72.6341 88.1933C72.4925 88.1876 72.347 88.1038 72.2962 87.9036L72.2961 87.9033C72.2609 87.7665 72.2437 87.6217 72.2401 87.4779C72.2372 87.3417 72.2052 87.2232 72.1251 87.1318C72.0454 87.0406 71.9276 86.9873 71.7764 86.9607L71.755 87.0402L70.5488 86.0987C70.5488 86.0987 70.5488 86.0987 70.5488 86.0987C70.5588 86.1314 70.5689 86.1645 70.5803 86.2006L70.6007 86.265L70.6673 86.2533C70.6712 86.2527 70.6751 86.252 70.6789 86.2513C70.6954 86.2485 70.7107 86.2459 70.7248 86.2422L70.7252 86.2421C70.7978 86.2224 70.8619 86.1856 70.8963 86.1209C70.9308 86.0563 70.9258 85.9825 70.9019 85.9111L70.9018 85.9109C70.8674 85.809 70.8862 85.7145 70.9332 85.6498C70.9797 85.5857 71.0558 85.5472 71.1485 85.5582C71.2331 85.5685 71.3284 85.6566 71.3635 85.8037L71.3645 85.8078C71.3763 85.8579 71.3864 85.901 71.398 85.9349C71.41 85.9703 71.4267 86.0058 71.4575 86.0334C71.4888 86.0615 71.526 86.0736 71.5627 86.0803C71.5982 86.0869 71.6424 86.09 71.6931 86.0934L71.6933 86.0935C72.1193 86.1217 72.4837 86.2738 72.7726 86.5856L72.7726 86.5856C72.9796 86.8086 73.0818 87.073 73.0764 87.3796L73.0764 87.3797C73.073 87.5778 73.0657 87.7585 72.9928 87.9292L73.0638 87.9595ZM73.0638 87.9595C73.1434 87.7732 73.1502 87.578 73.1536 87.381L72.1629 87.4796C72.1666 87.6282 72.1843 87.779 72.2213 87.9226C72.2813 88.1589 72.4584 88.2636 72.631 88.2705C72.816 88.2777 72.9827 88.1483 73.0638 87.9595ZM72.2028 91.9127C72.2248 92.0309 72.2433 92.1471 72.2487 92.2623C72.2533 92.3753 72.1989 92.4365 72.1276 92.4541L72.1275 92.4541M72.2028 91.9127L72.1275 92.4541M72.1275 92.4541C72.07 92.4683 71.9847 92.4354 71.9403 92.3382L71.9401 92.3378M72.1275 92.4541L71.9401 92.3378M71.9401 92.3378C71.8621 92.1695 71.7869 92.0033 71.7354 91.8324M71.9401 92.3378L71.4984 91.6145M71.4984 91.6145L71.4985 91.6146C71.5018 91.6158 71.5051 91.6171 71.5086 91.6184C71.5479 91.6335 71.5942 91.6513 71.6334 91.6802C71.6804 91.7149 71.7147 91.7628 71.7354 91.8324M71.4984 91.6145C71.3683 91.5644 71.246 91.5155 71.1548 91.4383L71.1547 91.4383M71.4984 91.6145L71.1547 91.4383M71.7354 91.8324C71.7354 91.8324 71.7354 91.8324 71.7354 91.8325L71.6614 91.8545L71.7354 91.8322C71.7354 91.8323 71.7354 91.8323 71.7354 91.8324ZM71.1547 91.4383C70.9258 91.2453 70.9459 90.9088 71.1818 90.7537L71.1547 91.4383ZM69.9394 85.9046C69.8869 85.7239 69.962 85.571 70.1311 85.5065M69.9394 85.9046C69.9855 86.0622 70.0331 86.2192 70.0859 86.3745M69.9394 85.9046L70.0135 85.8829C70.0595 86.04 70.1066 86.1956 70.159 86.3493M69.9394 85.9046L70.0136 85.8831C69.9918 85.808 69.9979 85.7447 70.0217 85.6956C70.0453 85.6467 70.0899 85.6048 70.1586 85.5787L70.1587 85.5786C70.2159 85.5567 70.269 85.5601 70.314 85.5827C70.3598 85.6056 70.404 85.6518 70.4342 85.7272L70.159 86.3493M70.1311 85.5065L70.9218 89.6795M70.1311 85.5065C70.283 85.4482 70.4343 85.5197 70.5059 85.6985L70.1311 85.5065ZM70.0859 86.3745C70.1126 86.4508 70.1085 86.5057 70.0422 86.5633M70.0859 86.3745L70.1591 86.3496C70.159 86.3495 70.159 86.3494 70.159 86.3493M70.0859 86.3745L70.1588 86.349C70.1589 86.3491 70.1589 86.3492 70.159 86.3493M70.0422 86.5633C69.7689 86.8021 69.5782 87.0955 69.4793 87.4463M70.0422 86.5633L70.0931 86.6215C70.093 86.6215 70.093 86.6215 70.0929 86.6216L70.0422 86.5633ZM69.4793 87.4463C69.3586 87.8758 69.3671 88.3028 69.5819 88.6967M69.4793 87.4463L69.5536 87.4672C69.5536 87.4672 69.5536 87.4672 69.5537 87.4672L69.4793 87.4463ZM69.5819 88.6967C69.8719 89.2269 70.3663 89.5026 70.9218 89.6795M69.5819 88.6967L69.6497 88.6597C69.6497 88.6597 69.6497 88.6597 69.6496 88.6596L69.5819 88.6967ZM70.9218 89.6795L70.9449 89.6058M70.9218 89.6795L70.9449 89.6058M71.3076 90.4166L71.3076 90.4168C71.3098 90.4245 71.3129 90.4347 71.3164 90.4459C71.3224 90.4655 71.3294 90.4883 71.334 90.5067C71.3424 90.5396 71.3495 90.5792 71.3451 90.6207L71.2683 90.6127L71.3454 90.6184C71.3422 90.6612 71.3112 90.685 71.3004 90.6927C71.286 90.703 71.2696 90.7106 71.2572 90.716C71.2477 90.7202 71.237 90.7244 71.2277 90.7281C71.2246 90.7293 71.2217 90.7305 71.219 90.7316C71.2109 90.7349 71.2044 90.7376 71.1992 90.74C71.1981 90.7411 71.1966 90.7424 71.1951 90.7437L71.3076 90.4166ZM71.3076 90.4166C71.2859 90.3406 71.264 90.2653 71.2422 90.1902C71.2034 90.0567 71.1648 89.924 71.1282 89.79L71.1282 89.79M71.3076 90.4166L71.1282 89.79M71.1282 89.79C71.116 89.7453 71.0971 89.7047 71.0635 89.6716M71.1282 89.79L71.0635 89.6716M71.0635 89.6716C71.0304 89.6389 70.9895 89.6197 70.9449 89.6058M71.0635 89.6716L70.9449 89.6058M70.8788 87.2606C70.959 87.5195 71.0352 87.7774 71.1116 88.0359C71.1724 88.2413 71.2332 88.4471 71.2962 88.6541L71.2962 88.6542C71.3088 88.6953 71.3211 88.7325 71.3359 88.7624C71.3513 88.7934 71.3729 88.8239 71.4083 88.8438C71.4427 88.8631 71.4799 88.8665 71.5139 88.8656C71.5475 88.8646 71.5874 88.8588 71.6321 88.8518L71.7332 88.8359L71.6927 88.7484C71.6517 88.5938 71.6107 88.44 71.5698 88.2866C71.4688 87.9076 71.3686 87.5316 71.2716 87.1549L71.2715 87.1545C71.2664 87.1351 71.2602 87.1141 71.2519 87.0947C71.2438 87.0758 71.2314 87.0532 71.2112 87.0348C71.1891 87.0147 71.161 87.0028 71.1291 87.0019C71.0998 87.001 71.0718 87.0096 71.0468 87.0212C71.0399 87.0245 71.0304 87.0269 71.0101 87.0322L71.0089 87.0325L71.0087 87.0326C70.9917 87.037 70.9645 87.0441 70.9399 87.0579C70.9124 87.0734 70.8846 87.0993 70.8723 87.141C70.861 87.1793 70.8662 87.2202 70.8788 87.2606ZM71.9256 90.8597L72.0077 90.8217C72.076 90.7925 72.131 90.7464 72.1611 90.6805C72.1911 90.6151 72.1916 90.5407 72.1719 90.464L72.1719 90.4639C72.1454 90.3612 72.1133 90.2569 72.0818 90.1545C72.0626 90.0924 72.0437 90.031 72.0264 89.9711L72.0264 89.9711C72.0057 89.8994 71.9663 89.8467 71.9088 89.8118C71.8548 89.7789 71.7905 89.7655 71.726 89.7586L71.6124 89.7463L71.6434 89.8563C71.6684 89.9452 71.6932 90.033 71.7178 90.1203C71.7792 90.3382 71.8397 90.5528 71.9012 90.7723L71.9256 90.8597ZM70.5382 87.6622L70.4861 87.4701L70.395 87.6471C70.3287 87.7759 70.3049 87.9445 70.3381 88.1047C70.3716 88.2665 70.4645 88.4239 70.6355 88.5218L70.7973 88.6143L70.7484 88.4344C70.7184 88.3239 70.689 88.2163 70.6599 88.1093C70.6196 87.9614 70.5795 87.8145 70.5382 87.6622Z" stroke="black" stroke-width="0.154479"/>
<path d="M82.9417 86.7161L82.867 86.6965C82.867 86.6966 82.8669 86.6966 82.8669 86.6966C82.8669 86.6967 82.8669 86.6967 82.8669 86.6967L82.9417 86.7161ZM82.9417 86.7161C82.9599 86.6461 82.9842 86.5768 83.0084 86.5076C83.0495 86.3905 83.0904 86.2736 83.1015 86.1538L82.8593 86.9399L82.9363 86.9332M82.9417 86.7161C82.9238 86.7844 82.93 86.8614 82.9363 86.9332M82.9363 86.9332L82.8594 86.94L82.8594 86.94M82.9363 86.9332C82.9421 86.9996 82.9508 87.0659 82.9596 87.1321C82.9701 87.2108 82.9805 87.2894 82.9858 87.3681M82.8594 86.94L82.7486 87.5071C82.7682 87.5167 82.792 87.5204 82.8244 87.5107L82.8244 87.5107C82.8598 87.5002 82.8797 87.4825 82.8915 87.4627C82.9042 87.4417 82.9113 87.4119 82.9087 87.3731L82.9858 87.3681M82.8594 86.94C82.8653 87.0082 82.8743 87.0761 82.883 87.142C82.8839 87.1483 82.8847 87.1547 82.8855 87.161C82.8951 87.2335 82.904 87.3036 82.9088 87.3733L82.9858 87.3681M82.8594 86.94L82.8464 87.5848M82.9858 87.3681C82.9924 87.4685 82.9511 87.5536 82.8464 87.5848M82.8464 87.5848C82.7465 87.6146 82.671 87.5662 82.6187 87.4853M82.8464 87.5848L82.6837 87.4434L82.6187 87.4853M82.6187 87.4853C82.5817 87.4278 82.5484 87.3675 82.5143 87.3059C82.4972 87.275 82.4799 87.2437 82.4618 87.2122L82.423 87.132L82.4227 87.1321M82.6187 87.4853L82.6836 87.4433C82.648 87.388 82.6168 87.3317 82.5836 87.2716C82.5662 87.2402 82.5483 87.2077 82.5288 87.1737L82.5092 87.1396L82.4765 87.1361C82.4752 87.1357 82.4737 87.1353 82.4723 87.1349C82.4648 87.1327 82.4456 87.1277 82.4227 87.1321M82.4227 87.1321L82.4192 87.1328C82.3739 87.1412 82.3337 87.1488 82.3027 87.1583C82.2714 87.1679 82.2327 87.1842 82.2079 87.2218C82.1834 87.2589 82.1831 87.3007 82.1857 87.333C82.1883 87.364 82.1954 87.4024 82.2034 87.4457C82.204 87.4488 82.2046 87.4519 82.2052 87.4551L82.2052 87.4552M82.4227 87.1321L82.2052 87.4552M83.0663 83.502L82.9953 83.4715C82.9232 83.6394 82.7811 83.7414 82.6365 83.7358C82.4949 83.7301 82.3495 83.6462 82.2986 83.446L82.2986 83.4458C82.2633 83.309 82.2461 83.1642 82.2425 83.0204C82.2397 82.8842 82.2076 82.7657 82.1276 82.6742C82.0478 82.5831 81.93 82.5298 81.7788 82.5032L81.7575 82.5827L80.5513 81.6411C80.5513 81.6411 80.5513 81.6411 80.5513 81.6412C80.5612 81.6739 80.5713 81.707 80.5828 81.7431L80.6032 81.8075L80.6697 81.7958C80.6736 81.7951 80.6775 81.7945 80.6813 81.7938C80.6979 81.791 80.7131 81.7884 80.7273 81.7846L80.7276 81.7845C80.8003 81.7649 80.8643 81.728 80.8988 81.6634C80.9332 81.5988 80.9282 81.525 80.9043 81.4535L80.9043 81.4533C80.8699 81.3515 80.8886 81.257 80.9356 81.1923C80.9821 81.1282 81.0583 81.0897 81.1509 81.1007C81.2355 81.1109 81.3309 81.1991 81.3659 81.3462L81.3669 81.3503C81.3787 81.4004 81.3889 81.4434 81.4004 81.4774C81.4124 81.5128 81.4291 81.5483 81.4599 81.5759C81.4913 81.604 81.5284 81.616 81.5651 81.6228C81.6006 81.6294 81.6448 81.6324 81.6956 81.6359L81.6957 81.6359C82.1217 81.6642 82.4862 81.8163 82.7751 82.1281L82.7751 82.1281C82.982 82.3511 83.0843 82.6154 83.0788 82.9221L83.0788 82.9222C83.0754 83.1202 83.0681 83.301 82.9952 83.4717L83.0663 83.502ZM83.0663 83.502C83.1458 83.3157 83.1527 83.1205 83.1561 82.9235L82.1653 83.0221C82.169 83.1707 82.1868 83.3215 82.2238 83.4651C82.2838 83.7014 82.4609 83.8061 82.6335 83.8129C82.8184 83.8202 82.9852 83.6908 83.0663 83.502ZM82.2052 87.4552C82.2272 87.5734 82.2458 87.6896 82.2511 87.8048C82.2557 87.9177 82.2014 87.979 82.13 87.9966L82.13 87.9966M82.2052 87.4552L82.13 87.9966M82.13 87.9966C82.0724 88.0108 81.9871 87.9779 81.9428 87.8807L81.9426 87.8803M82.13 87.9966L81.9426 87.8803M81.9426 87.8803C81.8646 87.712 81.7894 87.5458 81.7379 87.3749M81.9426 87.8803L81.5009 87.157M81.5009 87.157L81.5009 87.157C81.5042 87.1583 81.5076 87.1596 81.511 87.1609C81.5503 87.176 81.5966 87.1938 81.6358 87.2227C81.6828 87.2574 81.7172 87.3053 81.7379 87.3749M81.5009 87.157C81.3707 87.1069 81.2485 87.058 81.1572 86.9808L81.1571 86.9807M81.5009 87.157L81.1571 86.9807M81.7379 87.3749C81.7379 87.3749 81.7379 87.3749 81.7379 87.375L81.6639 87.397L81.7378 87.3747C81.7378 87.3747 81.7378 87.3748 81.7379 87.3749ZM81.1571 86.9807C80.9283 86.7878 80.9483 86.4512 81.1842 86.2962L81.1571 86.9807ZM79.9418 81.4471C79.8894 81.2664 79.9644 81.1134 80.1335 81.049M79.9418 81.4471C79.988 81.6047 80.0355 81.7616 80.0884 81.917M79.9418 81.4471L80.016 81.4254C80.0619 81.5825 80.1091 81.7381 80.1614 81.8918M79.9418 81.4471L80.016 81.4256C79.9942 81.3505 80.0004 81.2871 80.0241 81.2381C80.0478 81.1892 80.0924 81.1473 80.161 81.1211L80.1612 81.1211C80.2183 81.0992 80.2715 81.1026 80.3165 81.1251C80.3623 81.1481 80.4065 81.1943 80.4366 81.2697L80.1614 81.8918M80.1335 81.049L80.9243 85.222M80.1335 81.049C80.2855 80.9907 80.4368 81.0622 80.5084 81.241L80.1335 81.049ZM80.0884 81.917C80.115 81.9932 80.1109 82.0481 80.0447 82.1058M80.0884 81.917L80.1615 81.8921C80.1615 81.892 80.1614 81.8919 80.1614 81.8918M80.0884 81.917L80.1613 81.8915C80.1613 81.8916 80.1614 81.8917 80.1614 81.8918M80.0447 82.1058C79.7713 82.3445 79.5807 82.6379 79.4817 82.9887M80.0447 82.1058L80.0955 82.1639C80.0955 82.164 80.0954 82.164 80.0954 82.164L80.0447 82.1058ZM79.4817 82.9887C79.3611 83.4183 79.3696 83.8452 79.5843 84.2392M79.4817 82.9887L79.5561 83.0097C79.5561 83.0097 79.5561 83.0097 79.5561 83.0096L79.4817 82.9887ZM79.5843 84.2392C79.8744 84.7694 80.3687 85.045 80.9243 85.222M79.5843 84.2392L79.6521 84.2022C79.6521 84.2022 79.6521 84.2022 79.6521 84.2021L79.5843 84.2392ZM80.9243 85.222L80.9473 85.1483M80.9243 85.222L80.9473 85.1483M81.31 85.9591L81.3101 85.9593C81.3123 85.967 81.3154 85.9771 81.3188 85.9884C81.3248 86.008 81.3318 86.0308 81.3365 86.0492C81.3448 86.0821 81.3519 86.1217 81.3476 86.1632L81.2708 86.1552L81.3478 86.1608C81.3447 86.2037 81.3137 86.2275 81.3029 86.2352C81.2884 86.2454 81.272 86.2531 81.2596 86.2585C81.2501 86.2626 81.2394 86.2669 81.2302 86.2706C81.2271 86.2718 81.2242 86.273 81.2215 86.2741C81.2134 86.2773 81.2069 86.2801 81.2017 86.2825C81.2005 86.2836 81.1991 86.2849 81.1976 86.2862L81.31 85.9591ZM81.31 85.9591C81.2884 85.8831 81.2665 85.8078 81.2446 85.7327C81.2058 85.5992 81.1672 85.4665 81.1307 85.3325L81.1307 85.3325M81.31 85.9591L81.1307 85.3325M81.1307 85.3325C81.1184 85.2878 81.0995 85.2472 81.0659 85.214M81.1307 85.3325L81.0659 85.214M81.0659 85.214C81.0329 85.1814 80.9919 85.1622 80.9473 85.1483M81.0659 85.214L80.9473 85.1483M80.8813 82.8031C80.9614 83.062 81.0377 83.3199 81.1141 83.5784C81.1748 83.7838 81.2356 83.9896 81.2986 84.1966L81.2987 84.1967C81.3113 84.2378 81.3235 84.275 81.3383 84.3048C81.3537 84.3359 81.3753 84.3664 81.4107 84.3862C81.4451 84.4056 81.4823 84.409 81.5163 84.408C81.55 84.4071 81.5899 84.4013 81.6345 84.3943L81.7357 84.3784L81.6951 84.2909C81.6542 84.1363 81.6132 83.9824 81.5723 83.8291C81.4713 83.4501 81.3711 83.0741 81.274 82.6974L81.2739 82.697C81.2688 82.6775 81.2626 82.6565 81.2543 82.6372C81.2462 82.6183 81.2339 82.5957 81.2137 82.5773C81.1915 82.5572 81.1635 82.5453 81.1316 82.5444C81.1022 82.5435 81.0743 82.5521 81.0493 82.5637C81.0423 82.567 81.0329 82.5694 81.0125 82.5747L81.0113 82.575L81.0112 82.575C80.9942 82.5795 80.967 82.5865 80.9424 82.6004C80.9149 82.6159 80.887 82.6418 80.8748 82.6835C80.8635 82.7218 80.8686 82.7627 80.8813 82.8031ZM81.9281 86.4022L82.0101 86.3642C82.0784 86.335 82.1334 86.2889 82.1636 86.223C82.1935 86.1575 82.194 86.0831 82.1743 86.0064L82.1743 86.0064C82.1479 85.9037 82.1157 85.7993 82.0842 85.697C82.0651 85.6349 82.0461 85.5734 82.0289 85.5136L82.0289 85.5136C82.0081 85.4419 81.9687 85.3891 81.9113 85.3542C81.8572 85.3214 81.793 85.308 81.7285 85.301L81.6149 85.2888L81.6459 85.3988C81.6709 85.4876 81.6956 85.5755 81.7203 85.6628C81.7817 85.8806 81.8422 86.0953 81.9036 86.3148L81.9281 86.4022ZM80.5406 83.2047L80.4885 83.0126L80.3974 83.1896C80.3312 83.3184 80.3073 83.4869 80.3405 83.6471C80.374 83.809 80.4669 83.9664 80.638 84.0642L80.7998 84.1568L80.7509 83.9769C80.7208 83.8664 80.6915 83.7588 80.6623 83.6518C80.622 83.5039 80.582 83.357 80.5406 83.2047Z" stroke="black" stroke-width="0.154479"/>
</g>
<rect x="100.103" y="90.1561" width="31.2223" height="32.2862" rx="15.6111" transform="rotate(155.133 100.103 90.1561)" stroke="#2A2A2A" stroke-width="0.693829"/>
<defs>
<clipPath id="clip0_365_3977">
<rect x="100.564" y="90.325" width="31.9161" height="32.98" rx="15.9581" transform="rotate(155.133 100.564 90.325)" fill="white"/>
</clipPath>
</defs>
</svg>
