<svg width="39" height="40" viewBox="0 0 39 40" fill="none" xmlns="http://www.w3.org/2000/svg">
<g filter="url(#filter0_d_1_2)">
<circle cx="20.2677" cy="18.8508" r="16.6018" transform="rotate(-92.0327 20.2677 18.8508)" fill="white" stroke="black" stroke-width="3"/>
<path d="M12.5927 23.4535C13.0006 23.3926 13.5312 22.4703 13.7254 22.1335C14.236 21.248 14.861 20.4443 15.3937 19.564C16.1854 18.2559 17.2151 17.1284 17.9775 15.8201C18.4058 15.0852 19.1235 14.3937 19.6934 13.7706C19.781 13.6748 20.1417 13.0816 20.2335 13.1903C20.5568 13.573 20.6924 14.0214 20.9737 14.434C22.411 16.541 24.1312 18.4929 25.9652 20.2323C26.6689 20.8998 27.7165 22.1349 28.5701 22.532" stroke="black" stroke-width="3" stroke-linecap="round"/>
</g>
<defs>
<filter id="filter0_d_1_2" x="0.165668" y="0.748833" width="38.204" height="39.204" filterUnits="userSpaceOnUse" color-interpolation-filters="sRGB">
<feFlood flood-opacity="0" result="BackgroundImageFix"/>
<feColorMatrix in="SourceAlpha" type="matrix" values="0 0 0 0 0 0 0 0 0 0 0 0 0 0 0 0 0 0 127 0" result="hardAlpha"/>
<feOffset dx="-2" dy="3"/>
<feComposite in2="hardAlpha" operator="out"/>
<feColorMatrix type="matrix" values="0 0 0 0 0 0 0 0 0 0 0 0 0 0 0 0 0 0 0.17 0"/>
<feBlend mode="normal" in2="BackgroundImageFix" result="effect1_dropShadow_1_2"/>
<feBlend mode="normal" in="SourceGraphic" in2="effect1_dropShadow_1_2" result="shape"/>
</filter>
</defs>
</svg>
